{
    "asset" : {
        "generator" : "Khronos glTF Blender I/O v1.7.33",
        "version" : "2.0"
    },
    "scene" : 0,
    "scenes" : [
        {
            "name" : "Scene",
            "nodes" : [
                18
            ]
        }
    ],
    "nodes" : [
        {
            "mesh" : 0,
            "name" : "\uc2e4\ub9b0\ub354.003",
            "scale" : [
                0.3362445533275604,
                0.3362445533275604,
                0.3362445533275604
            ],
            "translation" : [
                -10.334680557250977,
                -0.1267372965812683,
                9.023935317993164
            ]
        },
        {
            "name" : "Bone.003",
            "rotation" : [
                3.720104224669285e-09,
                3.1953331358636206e-07,
                -0.0061742872931063175,
                0.9999809265136719
            ],
            "translation" : [
                -7.359974851794959e-10,
                0.5678242444992065,
                4.952971626587255e-14
            ]
        },
        {
            "children" : [
                1
            ],
            "name" : "Bone.002",
            "rotation" : [
                6.784180328622824e-08,
                -1.0309408793318653e-07,
                -0.17499186098575592,
                0.9845699071884155
            ],
            "scale" : [
                0.9999998807907104,
                0.9999998807907104,
                1
            ],
            "translation" : [
                -5.482317178007179e-08,
                0.5536587834358215,
                2.3418655117337858e-14
            ]
        },
        {
            "children" : [
                2
            ],
            "name" : "Bone.001",
            "rotation" : [
                3.3315905056952033e-07,
                1.2962044593223254e-07,
                -0.8007057309150696,
                0.5990579128265381
            ],
            "scale" : [
                1,
                0.9999999403953552,
                1
            ],
            "translation" : [
                5.8513151657280105e-08,
                1.3242005109786987,
                1.4471261103495003e-13
            ]
        },
        {
            "name" : "Bone.007",
            "rotation" : [
                6.851104927818596e-08,
                1.271638350175408e-10,
                -0.005563110578805208,
                0.999984622001648
            ],
            "scale" : [
                0.9999999403953552,
                1,
                1
            ],
            "translation" : [
                -3.725290298461914e-09,
                1.3242003917694092,
                4.5102810375396984e-17
            ]
        },
        {
            "name" : "Bone.010",
            "rotation" : [
                3.1097438513150166e-10,
                2.1250421866625402e-08,
                0.01756313256919384,
                0.9998458623886108
            ],
            "translation" : [
                -5.960465188081798e-08,
                0.5110695362091064,
                1.2434497875801753e-14
            ]
        },
        {
            "children" : [
                5
            ],
            "name" : "Bone.009",
            "rotation" : [
                -3.6448010831691136e-08,
                -1.8259844125623204e-07,
                0.2440706342458725,
                0.9697574973106384
            ],
            "scale" : [
                1,
                1.0000001192092896,
                1
            ],
            "translation" : [
                -1.3401552223513136e-07,
                0.5098397731781006,
                -5.551861189745724e-14
            ]
        },
        {
            "children" : [
                6
            ],
            "name" : "Bone.008",
            "rotation" : [
                -1.8410075597330433e-07,
                -2.2020840262371166e-08,
                0.7831231355667114,
                0.6218667030334473
            ],
            "scale" : [
                1,
                1.0000001192092896,
                1
            ],
            "translation" : [
                2.530206266726509e-08,
                1.3242003917694092,
                7.896891555383631e-15
            ]
        },
        {
            "children" : [
                3,
                4,
                7
            ],
            "name" : "Bone",
            "rotation" : [
                -1.804465554755552e-08,
                1.1878893957373293e-07,
                0.0055631110444664955,
                0.999984622001648
            ],
            "scale" : [
                1,
                0.9999999403953552,
                1
            ],
            "translation" : [
                -0.0589301623404026,
                0,
                0
            ]
        },
        {
            "name" : "Bone.006",
            "rotation" : [
                0.06652706861495972,
                -1.6749677200778024e-08,
                5.034435091033629e-09,
                0.9977847337722778
            ],
            "scale" : [
                1,
                0.9999999403953552,
                0.9999999403953552
            ],
            "translation" : [
                0,
                0.5900424122810364,
                3.166497464235363e-08
            ]
        },
        {
            "children" : [
                9
            ],
            "name" : "Bone.005",
            "rotation" : [
                -0.7610502243041992,
                1.0088733404245431e-07,
                4.947514398168096e-08,
                0.6486929655075073
            ],
            "scale" : [
                1.0000001192092896,
                1.0000001192092896,
                1.0000001192092896
            ],
            "translation" : [
                5.705115453815508e-15,
                0.4969947040081024,
                -3.6312337581279053e-09
            ]
        },
        {
            "children" : [
                10
            ],
            "name" : "Bone.004",
            "rotation" : [
                -0.44511112570762634,
                -0.5494325160980225,
                -0.44511106610298157,
                0.549432635307312
            ],
            "scale" : [
                0.9999998807907104,
                0.9999998211860657,
                1
            ],
            "translation" : [
                -0.0589301623404026,
                -1.9852334701272664e-23,
                -2.220445784552517e-16
            ]
        },
        {
            "name" : "Bone.013",
            "rotation" : [
                0.030261404812335968,
                3.563391004490768e-08,
                4.813280884974347e-09,
                0.9995419979095459
            ],
            "scale" : [
                1,
                1,
                0.9999999403953552
            ],
            "translation" : [
                -1.7541079943813112e-14,
                0.4870697259902954,
                -5.528174806812558e-09
            ]
        },
        {
            "children" : [
                12
            ],
            "name" : "Bone.012",
            "rotation" : [
                -0.7625236511230469,
                6.383447548330423e-09,
                -8.668848749948665e-08,
                0.6469603776931763
            ],
            "scale" : [
                1,
                0.9999999403953552,
                0.9999999403953552
            ],
            "translation" : [
                -5.551115123125783e-16,
                0.42952749133110046,
                9.313227966600834e-10
            ]
        },
        {
            "children" : [
                13
            ],
            "name" : "Bone.011",
            "rotation" : [
                -0.473577082157135,
                0.5250950455665588,
                0.4735771119594574,
                0.5250949859619141
            ],
            "translation" : [
                -0.0589301623404026,
                0,
                0
            ]
        },
        {
            "name" : "Bone.016",
            "rotation" : [
                0.1920987069606781,
                -7.88787229977217e-11,
                -1.080409720022324e-10,
                0.9813756346702576
            ],
            "scale" : [
                1,
                0.9999999403953552,
                0.9999999403953552
            ],
            "translation" : [
                4.016223353886517e-09,
                0.454415887594223,
                -4.603261782171186e-12
            ]
        },
        {
            "children" : [
                15
            ],
            "name" : "Bone.015",
            "rotation" : [
                -0.09976305812597275,
                -0.0003889068902935833,
                0.0038786232471466064,
                0.9950035810470581
            ],
            "scale" : [
                1,
                0.9999998807907104,
                0.9999999403953552
            ],
            "translation" : [
                -1.4672707493446069e-09,
                0.8407872319221497,
                -5.875659070397887e-08
            ]
        },
        {
            "children" : [
                16
            ],
            "name" : "Bone.014",
            "rotation" : [
                -0.5437194108963013,
                -0.0021194566506892443,
                -0.0032715247943997383,
                0.8392580151557922
            ],
            "scale" : [
                1,
                0.9999999403953552,
                1
            ],
            "translation" : [
                -0.0589301623404026,
                1.1895231327718747e-11,
                -2.6560966967514865e-11
            ]
        },
        {
            "children" : [
                0,
                8,
                11,
                14,
                17
            ],
            "name" : "\uc544\ub9c8\ud29c\uc5b4.003",
            "scale" : [
                0.5097699761390686,
                0.5097699761390686,
                0.5097699761390686
            ],
            "translation" : [
                5.0896806716918945,
                0.4820691645145416,
                -4.588642597198486
            ]
        }
    ],
    "materials" : [
        {
            "doubleSided" : true,
            "name" : "\ub9e4\ud14c\ub9ac\uc5bc.006",
            "pbrMetallicRoughness" : {
                "baseColorFactor" : [
                    0.9046614170074463,
                    0.48514997959136963,
                    0.7083759903907776,
                    1
                ],
                "metallicFactor" : 0,
                "roughnessFactor" : 0.6352941393852234
            }
        },
        {
            "doubleSided" : true,
            "name" : "\ub9e4\ud14c\ub9ac\uc5bc.005",
            "pbrMetallicRoughness" : {
                "baseColorTexture" : {
                    "index" : 0
                },
                "metallicFactor" : 0.0235294122248888,
                "roughnessFactor" : 0.7117646932601929
            }
        }
    ],
    "meshes" : [
        {
            "name" : "\uc2e4\ub9b0\ub354.031",
            "primitives" : [
                {
                    "attributes" : {
                        "POSITION" : 0,
                        "NORMAL" : 1,
                        "TEXCOORD_0" : 2
                    },
                    "indices" : 3,
                    "material" : 0
                },
                {
                    "attributes" : {
                        "POSITION" : 4,
                        "NORMAL" : 5,
                        "TEXCOORD_0" : 6
                    },
                    "indices" : 7,
                    "material" : 1
                }
            ]
        }
    ],
    "textures" : [
        {
            "sampler" : 0,
            "source" : 0
        }
    ],
    "images" : [
        {
            "mimeType" : "image/png",
            "name" : "tubbycat_face@2x",
            "uri" : "tubbycat_face2x.png"
        }
    ],
    "accessors" : [
        {
            "bufferView" : 0,
            "componentType" : 5126,
            "count" : 10178,
            "max" : [
                5.267516613006592,
                14.947416305541992,
                4.3310065269470215
            ],
            "min" : [
                -3.937812089920044,
                -2.4386863708496094,
                -4.755425453186035
            ],
            "type" : "VEC3"
        },
        {
            "bufferView" : 1,
            "componentType" : 5126,
            "count" : 10178,
            "type" : "VEC3"
        },
        {
            "bufferView" : 2,
            "componentType" : 5126,
            "count" : 10178,
            "type" : "VEC2"
        },
        {
            "bufferView" : 3,
            "componentType" : 5123,
            "count" : 22128,
            "type" : "SCALAR"
        },
        {
            "bufferView" : 4,
            "componentType" : 5126,
            "count" : 58,
            "max" : [
                3.921250104904175,
                9.970088005065918,
                4.246492385864258
            ],
            "min" : [
                -2.611656904220581,
                5.903810024261475,
                3.0368900299072266
            ],
            "type" : "VEC3"
        },
        {
            "bufferView" : 5,
            "componentType" : 5126,
            "count" : 58,
            "type" : "VEC3"
        },
        {
            "bufferView" : 6,
            "componentType" : 5126,
            "count" : 58,
            "type" : "VEC2"
        },
        {
            "bufferView" : 7,
            "componentType" : 5123,
            "count" : 216,
            "type" : "SCALAR"
        }
    ],
    "bufferViews" : [
        {
            "buffer" : 0,
            "byteLength" : 122136,
            "byteOffset" : 0
        },
        {
            "buffer" : 0,
            "byteLength" : 122136,
            "byteOffset" : 122136
        },
        {
            "buffer" : 0,
            "byteLength" : 81424,
            "byteOffset" : 244272
        },
        {
            "buffer" : 0,
            "byteLength" : 44256,
            "byteOffset" : 325696
        },
        {
            "buffer" : 0,
            "byteLength" : 696,
            "byteOffset" : 369952
        },
        {
            "buffer" : 0,
            "byteLength" : 696,
            "byteOffset" : 370648
        },
        {
            "buffer" : 0,
            "byteLength" : 464,
            "byteOffset" : 371344
        },
        {
            "buffer" : 0,
            "byteLength" : 432,
            "byteOffset" : 371808
        }
    ],
    "samplers" : [
        {
            "magFilter" : 9729,
            "minFilter" : 9987
        }
    ],
    "buffers" : [
        {
            "byteLength" : 372240,
            "uri" : "tubbycat_rig.bin"
        }
    ]
}
